<?xml version="1.0" encoding="UTF-8" standalone="no"?>
<!-- Created with Inkscape (http://www.inkscape.org/) -->

<svg
   xmlns:dc="http://purl.org/dc/elements/1.1/"
   xmlns:cc="http://creativecommons.org/ns#"
   xmlns:rdf="http://www.w3.org/1999/02/22-rdf-syntax-ns#"
   xmlns:svg="http://www.w3.org/2000/svg"
   xmlns="http://www.w3.org/2000/svg"
   xmlns:sodipodi="http://sodipodi.sourceforge.net/DTD/sodipodi-0.dtd"
   xmlns:inkscape="http://www.inkscape.org/namespaces/inkscape"
   width="10mm"
   height="9.9999905mm"
   viewBox="0 0 10 9.9999905"
   version="1.1"
   id="svg8698"
   inkscape:version="0.92.4 (5da689c313, 2019-01-14)"
   sodipodi:docname="rafyte_icon_slate.svg">
  <defs
     id="defs8692" />
  <sodipodi:namedview
     id="base"
     pagecolor="#ffffff"
     bordercolor="#666666"
     borderopacity="1.0"
     inkscape:pageopacity="0.0"
     inkscape:pageshadow="2"
     inkscape:zoom="7.9195959"
     inkscape:cx="23.024712"
     inkscape:cy="14.970558"
     inkscape:document-units="mm"
     inkscape:current-layer="layer1"
     showgrid="false"
     fit-margin-top="0"
     fit-margin-left="0"
     fit-margin-right="0"
     fit-margin-bottom="0"
     inkscape:window-width="1920"
     inkscape:window-height="1013"
     inkscape:window-x="-9"
     inkscape:window-y="-9"
     inkscape:window-maximized="1" />
  <metadata
     id="metadata8695">
    <rdf:RDF>
      <cc:Work
         rdf:about="">
        <dc:format>image/svg+xml</dc:format>
        <dc:type
           rdf:resource="http://purl.org/dc/dcmitype/StillImage" />
        <dc:title></dc:title>
      </cc:Work>
    </rdf:RDF>
  </metadata>
  <g
     inkscape:label="Layer 1"
     inkscape:groupmode="layer"
     id="layer1"
     transform="translate(-84.288689,-71.931887)">
    <rect
       style="opacity:1;fill:none;fill-opacity:1;stroke:none;stroke-width:9.44822407;stroke-linecap:round;stroke-miterlimit:4;stroke-dasharray:none;stroke-opacity:1"
       id="rect8674"
       width="10"
       height="9.9987411"
       x="84.288689"
       y="71.933136"
       inkscape:export-filename="C:\Projects\rafyte.github.io\rafyte_icon_slate.png"
       inkscape:export-xdpi="90"
       inkscape:export-ydpi="90" />
    <g
       id="g9252"
       transform="matrix(1.8897638,0,0,1.8897638,-74.997027,-72.900022)">
      <path
         style="color:#000000;clip-rule:nonzero;display:inline;overflow:visible;visibility:visible;opacity:1;isolation:auto;mix-blend-mode:normal;color-interpolation:sRGB;color-interpolation-filters:linearRGB;solid-color:#000000;solid-opacity:1;fill:#333346;fill-opacity:1;fill-rule:nonzero;stroke:none;stroke-width:0.06071989;stroke-linecap:round;stroke-linejoin:round;stroke-miterlimit:4;stroke-dasharray:none;stroke-dashoffset:0;stroke-opacity:1;color-rendering:auto;image-rendering:auto;shape-rendering:auto;text-rendering:auto;enable-background:accumulate"
         d="m 86.898009,76.642624 c -0.0303,6.5e-4 -0.0609,0.002 -0.0914,0.003 v 0 c -0.96041,0.06749 -1.69955,0.874501 -1.69911,1.823391 h -6.91e-4 v 3.462674 h 3.655361 l -0.97953,-1.846448 c 0.60038,-0.318399 0.9965,-0.961498 0.97306,-1.677279 a 0.31355118,0.3135117 0 0 0 0.002,-0.06559 0.31355118,0.3135117 0 0 0 0,-7.7e-4 0.31355118,0.3135117 0 0 0 0,-0.002 c -1.1e-5,0 0,0 0,-7.02e-4 a 0.31355118,0.3135117 0 0 0 -0.01111,-0.06609 c -0.10133,-0.938572 -0.90676,-1.651123 -1.8481,-1.632225 z m 0.0757,0.627141 c 0.61076,0.0183 1.11431,0.492258 1.15819,1.11567 a 0.31355118,0.3135117 0 0 0 0,8.88e-4 c 0.0462,0.664878 -0.44914,1.234286 -1.11412,1.280691 -0.66508,0.04629 -1.23473,-0.448885 -1.28125,-1.11387 -0.0466,-0.664977 0.44856,-1.234545 1.11362,-1.281219 v 0 c 0.0416,-0.003 0.0827,-0.003 0.12345,-0.003 z m 0.55934,2.925702 c -0.003,9.78e-4 -0.006,0.002 -0.01,0.003 0.003,-9.79e-4 0.006,-0.002 0.01,-0.003 z m -0.0862,0.02769 c -0.005,9.79e-4 -0.008,0.003 -0.0126,0.003 0.003,-9.78e-4 0.008,-0.003 0.0126,-0.003 z m -0.08,0.0215 c -0.01,0.002 -0.0175,0.005 -0.0264,0.006 0.009,-0.002 0.0175,-0.005 0.0264,-0.006 z m -0.0872,0.0191 c -0.0111,0.002 -0.0207,0.003 -0.0313,0.006 0.0111,-0.002 0.0209,-0.003 0.0313,-0.006 z m -0.088,0.0142 c -0.0126,0.002 -0.0247,0.005 -0.0371,0.006 0.0126,-0.002 0.0248,-0.003 0.0371,-0.006 z"
         id="path1017-0"
         inkscape:connector-curvature="0"
         inkscape:export-filename="C:\Projects\rafyte.github.io\rafyte_icon_slate.png"
         inkscape:export-xdpi="90"
         inkscape:export-ydpi="90" />
    </g>
  </g>
</svg>
